<?xml version="1.0" encoding="UTF-8"?>
<svg version="1.1" xmlns="http://www.w3.org/2000/svg" width="512" height="512">
<path d="M0 0 C3.44449264 0.63223508 3.44449264 0.63223508 5.5219326 -0.02637863 C8.71655235 -0.79507347 11.88276146 -0.70699976 15.14907837 -0.70294189 C15.89681404 -0.70591302 16.64454972 -0.70888414 17.41494405 -0.7119453 C19.92198575 -0.72062085 22.42897963 -0.72213959 24.93603516 -0.72363281 C26.73318585 -0.72826189 28.53033556 -0.73328667 30.32748413 -0.73867798 C35.21206008 -0.75179756 40.09662228 -0.75824638 44.98121309 -0.76268864 C48.03468161 -0.76562079 51.08814638 -0.76972593 54.14161301 -0.77419281 C63.70014161 -0.78786816 73.25866164 -0.79753396 82.81719935 -0.8013947 C93.8413921 -0.80587211 104.86546066 -0.82340512 115.88961565 -0.8523953 C124.41632389 -0.87403729 132.94299725 -0.88410037 141.46973264 -0.88543582 C146.55950723 -0.88648228 151.64916507 -0.89235591 156.73891068 -0.91025543 C161.530746 -0.92677905 166.32237738 -0.92887081 171.11423111 -0.92011642 C172.86772713 -0.91934828 174.6212343 -0.9236593 176.37470245 -0.93357468 C189.60827278 -1.00398471 199.66161493 -0.57837323 209.55078125 9.046875 C215.10687102 15.08653209 218.27687574 21.12403091 218.75 29.4375 C218.38702735 35.89805819 217.31718282 41.87098755 215.4453125 48.05078125 C215.0611467 49.35708244 215.0611467 49.35708244 214.66921997 50.68977356 C213.70745043 53.94248322 212.72917853 57.18998844 211.75 60.4375 C211.3343621 61.82298932 210.91896951 63.20855224 210.50378418 64.59417725 C207.18384629 75.66938945 203.83494674 86.73576626 200.48089218 97.80068588 C199.03075385 102.58592199 197.58251186 107.37173201 196.1340332 112.1574707 C192.94373921 122.69683113 189.75074271 133.23537163 186.55718231 143.77374268 C185.30173564 147.91680331 184.04661501 152.0599627 182.79150391 156.203125 C182.32750077 157.7347518 181.86349628 159.26637819 181.39949036 160.79800415 C180.72852601 163.01278246 180.05757704 165.22756543 179.3866787 167.44236374 C177.08840962 175.0294818 174.78883874 182.61619869 172.48510742 190.20166016 C168.91914754 201.94616097 165.36777106 213.69442364 161.875 225.4609375 C160.9990472 228.40049785 160.12249972 231.33988018 159.24575806 234.27920532 C158.47977944 236.85767706 157.72330203 239.43878642 156.9675293 242.02026367 C145.82257178 279.63851405 145.82257178 279.63851405 133.25 288.125 C128.31996341 290.71326921 123.75123143 291.9262779 118.23129272 292.54653931 C117.11949349 292.67294688 117.11949349 292.67294688 115.98523366 292.80190814 C106.68564489 293.76566157 97.38839095 293.71442059 88.04931641 293.69287109 C86.03199625 293.69562818 84.01467718 293.6993124 81.99736023 293.70384216 C77.69126538 293.71188636 73.38522223 293.7141401 69.07912064 293.71189499 C62.271892 293.70904103 55.46476535 293.72348639 48.65756226 293.74087524 C29.31436644 293.78771928 9.97117982 293.81187153 -9.37207031 293.81835938 C-20.08389436 293.82210359 -30.7956008 293.8400678 -41.50737441 293.87345374 C-48.27807663 293.89369545 -55.04847623 293.89602644 -61.81919646 293.88517356 C-66.01599529 293.88257532 -70.21261575 293.89652413 -74.40936852 293.91525459 C-76.35931055 293.92059626 -78.30928503 293.91904633 -80.2592144 293.91021919 C-82.9135865 293.89916782 -85.56674193 293.91244624 -88.22103882 293.93197632 C-89.38700358 293.91828933 -89.38700358 293.91828933 -90.57652318 293.90432584 C-93.88858485 293.95200162 -95.7527772 293.98333249 -98.25181007 296.26597023 C-99.83057209 299.70051572 -99.21513327 301.81825024 -98.25 305.4375 C-95.54069743 311.42707387 -92.30177455 314.92728645 -86.25 317.4375 C-80.24932714 319.23066694 -74.88901677 319.72734257 -68.64807129 319.70492554 C-67.71174693 319.70945665 -66.77542256 319.71398776 -65.81072474 319.71865618 C-62.68952079 319.7312641 -59.56849214 319.72968216 -56.44726562 319.72802734 C-54.20293454 319.73401469 -51.95860551 319.74082071 -49.71427917 319.74838257 C-43.62968801 319.766025 -37.54515313 319.77073711 -31.46053886 319.77201414 C-27.65795686 319.77343686 -23.85538912 319.77770868 -20.05281067 319.78300858 C-7.46829973 319.80054681 5.11617926 319.80984956 17.70069987 319.80834763 C18.37809684 319.80826772 19.05549381 319.8081878 19.75341797 319.80810547 C20.43164626 319.80802371 21.10987454 319.80794195 21.8086552 319.80785771 C32.80559565 319.80704441 43.80239927 319.82619719 54.79930013 319.8543822 C66.10424296 319.88312717 77.40912111 319.89655563 88.71410799 319.89519465 C95.05573948 319.89468478 101.39721591 319.90038253 107.73881531 319.92155075 C113.70115945 319.94091091 119.66320021 319.94107257 125.62555504 319.92651749 C127.81205882 319.92442581 129.9985815 319.92915154 132.18505287 319.9412384 C135.17308213 319.95668517 138.16006441 319.94738613 141.14807129 319.93197632 C142.44147249 319.94740701 142.44147249 319.94740701 143.76100302 319.96314943 C150.61848865 319.88515642 155.89289081 318.02814305 161.01171875 313.38671875 C163.64788559 308.91412108 165.04376995 304.19807384 166.5625 299.25 C166.94156494 298.04351807 167.32062988 296.83703613 167.71118164 295.59399414 C172.14905558 281.40943417 176.36518089 267.15424011 180.61767578 252.91333008 C185.49894253 236.56992547 190.45031505 220.24887633 195.4375 203.9375 C202.76862237 179.9536335 210.05791623 155.95737147 217.3247757 131.95396519 C217.73162103 130.61016616 218.13851645 129.2663823 218.54546356 127.9226141 C219.52240498 124.69651238 220.49839994 121.47013264 221.47293091 118.24330139 C223.23969227 112.39774882 225.01862709 106.55675171 226.8347168 100.72631836 C227.31984489 99.16043976 227.31984489 99.16043976 227.81477356 97.56292725 C228.40781014 95.65179202 229.00549618 93.74208937 229.60917664 91.83428955 C231.89883552 84.43632955 233.15237447 77.15784619 233.75 69.4375 C241.70681565 71.72723112 247.50463982 76.73879777 251.8125 83.8125 C258.38648899 99.7299658 251.46503992 117.10798615 246.5 132.4375 C245.72733953 134.89015041 244.95755722 137.3437091 244.19042969 139.7980957 C242.97695917 143.67617863 241.76202461 147.55367082 240.53448486 151.42732239 C237.59109877 160.71677419 234.72222169 170.02662807 231.90625 179.35546875 C231.60537885 180.35204561 231.60537885 180.35204561 231.29842949 181.36875534 C230.27654547 184.75479384 229.25583167 188.14118378 228.23556519 191.52770996 C226.36750137 197.7258585 224.48820638 203.92060392 222.60935783 210.11548996 C221.97117021 212.21974357 221.33316571 214.32405262 220.69520569 216.42837524 C216.07213451 231.67691562 211.44504142 246.92423242 206.81066895 262.16934204 C205.90939579 265.13429751 205.00877048 268.09944842 204.10876465 271.06478882 C200.06043334 284.40162376 196.00770023 297.73727133 191.8203125 311.03125 C191.54712692 311.90662415 191.27394135 312.78199829 190.99247742 313.68389893 C186.16683073 328.87818148 177.92100583 338.86973112 164.09765625 346.96484375 C152.3038685 352.15300942 140.87459804 351.86540157 128.22094727 351.82568359 C126.0417759 351.82975346 123.86260659 351.83509767 121.68344116 351.84161377 C115.78879487 351.85524451 109.89430679 351.85000599 103.99965787 351.84047651 C97.81665717 351.83285696 91.6336696 351.83993198 85.45066833 351.84463501 C75.0682432 351.85008628 64.68588218 351.84291784 54.3034668 351.82861328 C42.31952145 351.81229231 30.3357968 351.81757382 18.35185009 351.8340925 C8.04323253 351.84773038 -2.26533907 351.84961564 -12.57396275 351.84177649 C-18.72225615 351.83711209 -24.87047769 351.83644108 -31.0187664 351.84638596 C-36.80138781 351.85508668 -42.58381281 351.848977 -48.36641312 351.83170319 C-50.4818915 351.82775473 -52.59738657 351.82884407 -54.7128582 351.83549118 C-76.42588556 351.89739788 -92.97011115 347.92445667 -109.25 332.4375 C-119.80747327 321.3463156 -126.67445936 308.73794135 -126.5 293.25 C-126.49613281 292.40703369 -126.49226563 291.56406738 -126.48828125 290.69555664 C-126.41200494 285.1692324 -125.80114021 280.00863642 -124.66796875 274.59375 C-124.22272393 271.23152743 -124.31730966 268.1323393 -124.46679688 264.75512695 C-124.85399122 255.1256432 -123.23160622 250.18975247 -117.25 242.4375 C-108.06404852 228.06504709 -97.415553 208.51601371 -98.625 191.125 C-98.88121481 182.49568514 -94.03124928 177.16846346 -89.25 170.4375 C-80.82439639 156.4172956 -76.09644727 140.70125502 -75.90820312 124.47460938 C-75.66132645 117.21184211 -73.12918407 113.16678512 -68 108.0625 C-59.29785032 98.258576 -54.87304737 84.81494937 -51.25 72.4375 C-51.0334375 71.80457031 -50.816875 71.17164063 -50.59375 70.51953125 C-50.1525367 67.84718254 -50.39658932 65.29050509 -50.56958008 62.59936523 C-51.00784929 54.33213791 -50.17513036 49.46387165 -44.48828125 43.02734375 C-38.55625178 36.1635819 -35.2053491 28.14918321 -31.73242188 19.859375 C-27.87867812 10.96507083 -23.82072659 4.31298881 -14.765625 0.2734375 C-9.72434968 -1.40176889 -5.18867218 -0.6988433 0 0 Z M11.75 62.4375 C7.78858899 69.57004053 5.951475 77.32355233 5.75 85.4375 C9.17338726 87.71975818 10.39919941 87.69017003 14.42329407 87.69819641 C15.60514282 87.70528122 16.78699158 87.71236603 18.00465393 87.71966553 C19.30289597 87.71718811 20.601138 87.71471069 21.9387207 87.7121582 C23.31857581 87.71650505 24.6984285 87.72168811 26.07827759 87.72764587 C29.82841033 87.74105274 33.5784424 87.74161249 37.32859445 87.73908257 C40.45970128 87.73801362 43.59078769 87.74289449 46.72189015 87.747688 C54.11075152 87.75878983 61.49956206 87.75921734 68.88842773 87.75317383 C76.50752646 87.74713768 84.12644035 87.75943428 91.74550754 87.7807439 C98.28829478 87.79836955 104.83102325 87.80435959 111.37383336 87.80110615 C115.28083676 87.79929408 119.18770843 87.80192148 123.09469032 87.81582069 C126.77110099 87.82840952 130.4472242 87.82644515 134.12363052 87.81340981 C136.11201478 87.80992161 138.10040785 87.82121533 140.08876038 87.83297729 C141.87422272 87.82245583 141.87422272 87.82245583 143.695755 87.8117218 C144.72611028 87.81188954 145.75646555 87.81205729 146.81804371 87.81223011 C150.32438401 87.36408861 152.72108477 86.23381278 155.75 84.4375 C158.43038549 80.9198705 159.65527315 77.14281106 160.9375 72.9375 C161.45376953 71.28234375 161.45376953 71.28234375 161.98046875 69.59375 C162.69016654 66.6829083 163.06908028 64.40860817 162.75 61.4375 C160.08137842 58.76887842 158.806093 59.18407099 155.07633972 59.17680359 C153.86917801 59.16971878 152.6620163 59.16263397 151.41827393 59.15533447 C150.07336389 59.15762852 148.7284542 59.16013826 147.38354492 59.1628418 C145.97265858 59.15849641 144.56177461 59.15331384 143.15089417 59.14735413 C139.31192988 59.13393144 135.47306384 59.13338926 131.63408065 59.13591743 C128.43085538 59.13698533 125.22765014 59.13210821 122.02442914 59.127312 C114.46638487 59.11620467 106.90839029 59.11578573 99.3503418 59.12182617 C91.55231397 59.12786266 83.75446673 59.1155661 75.95646971 59.0942561 C69.26425055 59.07664009 62.57208885 59.0706389 55.87984735 59.07389385 C51.88175923 59.07570748 47.8837998 59.07306295 43.88573265 59.05917931 C40.12397978 59.04660617 36.36250805 59.04854001 32.60075951 59.06159019 C31.22089544 59.06395699 29.84101163 59.06121753 28.4611702 59.05296707 C26.57567641 59.04250736 24.69010261 59.05239864 22.80461121 59.0632782 C21.74991229 59.06311046 20.69521338 59.06294271 19.60855389 59.06276989 C16.28820518 59.49803705 14.42430309 60.4474651 11.75 62.4375 Z M-7.60546875 122.1640625 C-7.88003906 122.79054688 -8.15460938 123.41703125 -8.4375 124.0625 C-8.74558594 124.76375 -9.05367188 125.465 -9.37109375 126.1875 C-9.66113281 126.93 -9.95117188 127.6725 -10.25 128.4375 C-10.55035156 129.200625 -10.85070312 129.96375 -11.16015625 130.75 C-12.72161094 135.04944732 -13.81464722 138.80739281 -13.25 143.4375 C-10.58419992 146.10330008 -9.30912536 145.69518734 -5.58306885 145.71165466 C-4.37735229 145.72162979 -3.17163574 145.73160492 -1.92938232 145.74188232 C-0.5860597 145.7427782 0.75726309 145.74344173 2.10058594 145.74389648 C3.50985149 145.75151484 4.91911288 145.75994177 6.32836914 145.76911926 C10.16324997 145.79110789 13.99805103 145.7998694 17.83298779 145.80494571 C20.22877897 145.80858525 22.62454914 145.8148233 25.02033234 145.8219471 C33.37847311 145.84646028 41.73655168 145.85949676 50.09472656 145.86303711 C57.88488321 145.86667012 65.67464529 145.89654354 73.46468139 145.93844169 C80.15182272 145.97314657 86.83883338 145.98858561 93.52606416 145.98928314 C97.52038666 145.99007614 101.51430784 145.99882387 105.50853729 146.02728081 C109.26796389 146.05346409 113.02665663 146.05566595 116.78613281 146.03962517 C118.1639796 146.03781061 119.54186857 146.04450228 120.91962433 146.06044388 C129.21256679 146.41378777 129.21256679 146.41378777 136.51177979 143.12245178 C139.14700712 139.96125331 140.49129406 136.89420224 141.625 133 C141.83640625 132.35740234 142.0478125 131.71480469 142.265625 131.05273438 C143.50670626 127.08369202 143.96786579 123.58335777 143.75 119.4375 C140.40690495 117.43257867 137.86500372 117.18458652 133.99441528 117.17680359 C132.81960602 117.16971878 131.64479675 117.16263397 130.43438721 117.15533447 C129.14909119 117.15781189 127.86379517 117.16028931 126.53955078 117.1628418 C125.16940025 117.15849356 123.79925215 117.15331003 122.42910767 117.14735413 C118.71002461 117.13396369 114.99104317 117.13338558 111.27194071 117.13591743 C108.16563692 117.13698728 105.05935369 117.13210331 101.95305431 117.127312 C94.62314687 117.1162163 87.29329068 117.11577952 79.96337891 117.12182617 C72.40617482 117.12786458 64.84915698 117.11555855 57.29198468 117.0942561 C50.80013217 117.07663069 44.3083389 117.07064029 37.81646335 117.07389385 C33.94077356 117.07570563 30.06521658 117.07308126 26.18954849 117.05917931 C22.54349247 117.0465905 18.89772629 117.04855481 15.25167465 117.06159019 C13.27999871 117.06507806 11.30831387 117.05378525 9.33666992 117.04202271 C8.15622101 117.04903702 6.97577209 117.05605133 5.759552 117.0632782 C4.73786989 117.06311046 3.71618778 117.06294271 2.66354561 117.06276989 C-1.38943147 117.58404972 -5.02867739 118.88180953 -7.60546875 122.1640625 Z " fill="#FFFFFF" transform="translate(192.25,80.5625)"/>
</svg>
