<?xml version="1.0" encoding="UTF-8"?>
<svg version="1.1" xmlns="http://www.w3.org/2000/svg" width="512" height="512">
<path d="M0 0 C3.2831844 1.55008667 5.18595277 3.10746613 7.625 5.8125 C18.75217731 17.13805487 33.01368294 25.41313785 46.17944336 34.125 C52.74406353 38.47319201 59.21974612 42.91941656 65.62915039 47.49243164 C71.36476039 51.57651626 77.174393 55.54559114 83 59.5 C94.66683464 67.42803046 106.20772789 75.51381545 117.62182617 83.80151367 C118.36537354 84.34138916 119.1089209 84.88126465 119.875 85.4375 C120.61403564 85.97415283 121.35307129 86.51080566 122.11450195 87.0637207 C128.45660684 91.64927593 134.89855207 96.07895231 141.37963867 100.46533203 C145.57340474 103.30987507 149.66410352 106.2286991 153.6875 109.3125 C172.18763312 122.89451427 194.27875087 130.23213143 217.140625 127.64453125 C233.10856713 124.24564071 247.9406338 115.48841997 261 106 C262.45426195 104.95419742 263.90869648 103.90863478 265.36328125 102.86328125 C267.6577335 101.2100238 269.94970104 99.55362357 272.23657227 97.88989258 C277.77342321 93.86271573 283.37945266 89.95248476 289.03320312 86.09179688 C293.86424223 82.78987005 298.6598472 79.44118969 303.4375 76.0625 C304.14849854 75.55992676 304.85949707 75.05735352 305.59204102 74.53955078 C309.05599954 72.08890711 312.51619217 69.63307596 315.97265625 67.171875 C327.48482766 58.98950769 339.16153258 51.05612093 350.85302734 43.1328125 C359.2493989 37.44230032 367.63584894 31.73778167 376 26 C376.80501953 25.44940918 377.61003906 24.89881836 378.43945312 24.33154297 C386.48363826 18.81491145 394.18838447 13.34434161 401.21484375 6.546875 C403 5 403 5 405 5 C405.268125 4.360625 405.53625 3.72125 405.8125 3.0625 C407 1 407 1 410 0 C410.14033418 24.69597264 410.24605152 49.39188528 410.31087303 74.08817673 C410.34177453 85.55582786 410.38388432 97.02323083 410.45263672 108.49072266 C410.51255204 118.48903139 410.55117607 128.48716035 410.56453097 138.48564363 C410.57233416 143.77692824 410.59059617 149.06769868 410.63438034 154.35881805 C410.67531305 159.34607961 410.68762745 164.33261853 410.67864609 169.32003212 C410.68028752 171.14367166 410.69209891 172.96733707 410.71523285 174.79083061 C410.87698003 188.20603554 408.88134663 197.39156164 400 208 C392.76442519 214.71423427 383.11472685 219.11737851 373.22673798 219.13422108 C372.01532686 219.13867892 370.80391574 219.14313676 369.55579519 219.14772969 C368.2044738 219.14764039 366.85315242 219.14745054 365.50183105 219.14717102 C364.07164996 219.15046972 362.6414698 219.15419531 361.21129084 219.1583125 C357.27155654 219.16834025 353.33183748 219.17205055 349.39209223 219.17470181 C345.14648954 219.17860267 340.90089894 219.18818129 336.65530396 219.19691467 C326.39612445 219.21668722 316.13694395 219.22674716 305.87775016 219.23564246 C301.04661733 219.24002484 296.2154856 219.24539185 291.38435364 219.25063133 C275.32385231 219.26764585 259.26335167 219.28213934 243.20284271 219.28938007 C239.03399149 219.29128998 234.86514027 219.29321031 230.69628906 219.29516602 C229.66013704 219.29564976 228.62398502 219.2961335 227.55643445 219.2966319 C210.77691955 219.30492957 193.997476 219.33026107 177.21799225 219.36274669 C159.99080367 219.39582707 142.76365134 219.4138298 125.53643084 219.41702431 C115.8640809 219.41918871 106.19183496 219.42792684 96.51951599 219.45348549 C88.28060545 219.475206 80.04182414 219.48323633 71.80288821 219.47351871 C67.60100068 219.46897766 63.39937972 219.47084864 59.19752884 219.49028015 C55.34557423 219.50793921 51.49408011 219.50689219 47.64212042 219.49138286 C46.25372723 219.4890109 44.86530193 219.49330894 43.47695774 219.50521151 C31.01821972 219.60534717 20.78163428 217.28541714 11.4375 208.625 C10.633125 207.75875 9.82875 206.8925 9 206 C8.154375 205.0925 7.30875 204.185 6.4375 203.25 C-1.01899219 193.82340572 -0.55064315 183.93206599 -0.45410156 172.44506836 C-0.45297212 170.56199162 -0.45360884 168.67891312 -0.45587158 166.7958374 C-0.45701586 161.70340179 -0.43355288 156.61134561 -0.40557575 151.51899791 C-0.38051434 146.1898955 -0.37821636 140.86078371 -0.37347412 135.53163147 C-0.36105828 125.44892172 -0.32825545 115.36638615 -0.28807616 105.28375298 C-0.24331518 93.80132059 -0.22136052 82.31887975 -0.20129442 70.83638179 C-0.15952163 47.22415809 -0.0891966 23.61208882 0 0 Z " fill="#FFFFFF" transform="translate(51,199)"/>
<path d="M0 0 C1.43480091 -0.00489635 2.86959788 -0.01108958 4.30438823 -0.01845789 C8.2245044 -0.03478631 12.14441852 -0.03255406 16.06455672 -0.02708292 C20.30123115 -0.02440392 24.53785278 -0.03896078 28.77450562 -0.05117798 C37.06604068 -0.07219746 45.35750577 -0.07677483 53.64906434 -0.07499009 C60.39119075 -0.07368072 67.13329539 -0.07749554 73.87541771 -0.08491516 C75.81999403 -0.08701443 77.76457035 -0.08911203 79.70914668 -0.09120798 C80.67712063 -0.09225151 81.64509457 -0.09329504 82.64240106 -0.09437019 C100.93551248 -0.11325848 119.22858376 -0.11222667 137.52170088 -0.10540086 C154.24124975 -0.09982633 170.96064536 -0.12064952 187.68015841 -0.15376133 C204.86464954 -0.18752877 222.0490673 -0.20266286 239.23359221 -0.1980443 C248.8746143 -0.19580272 258.51549474 -0.20099727 268.15648842 -0.22593689 C276.36446538 -0.24698946 284.57222301 -0.25050282 292.7802091 -0.2316373 C296.96421156 -0.22250383 301.14780548 -0.22126259 305.33177567 -0.24199295 C309.16947319 -0.26079659 313.00643028 -0.25609592 316.84410044 -0.23344713 C318.87402752 -0.22732821 320.90398415 -0.24557781 322.9338277 -0.26498365 C335.42385565 -0.14529502 345.49046665 3.17457965 354.51335144 11.99206543 C364.22082593 22.78790054 365.63664509 32.8432912 364.90739441 46.92224121 C363.14292884 65.57253177 348.05224327 83.37178525 334.36100769 95.26940918 C325.83620197 102.06261374 316.74263645 108.1164901 307.7565155 114.27575684 C302.73256368 117.7282318 297.73597516 121.21983778 292.73600769 124.70690918 C285.70674481 129.60071467 278.66267207 134.47170421 271.59757996 139.31359863 C265.40236246 143.5663085 259.25261871 147.88332446 253.10124207 152.19909668 C247.91536017 155.8343959 242.71166294 159.4415594 237.48600769 163.01940918 C232.04053756 166.75007162 226.62671934 170.52253858 221.23600769 174.33190918 C220.532099 174.82876221 219.82819031 175.32561523 219.10295105 175.83752441 C215.50782016 178.37847797 211.92235399 180.93188728 208.34928894 183.50378418 C172.31851404 209.36073171 172.31851404 209.36073171 154.88053894 207.01940918 C135.11474526 202.84169849 118.24368298 188.80931739 102.27946472 177.17883301 C96.85962161 173.23204223 91.37371379 169.39853505 85.83732605 165.61755371 C80.56896268 162.01766652 75.33482734 158.37110475 70.11100769 154.70690918 C59.9576376 147.5874966 49.77931888 140.50434355 39.59684753 133.42663574 C36.70144923 131.41383338 33.80651677 129.40036316 30.91178894 127.38659668 C29.96368347 126.72716064 29.015578 126.06772461 28.03874207 125.38830566 C26.1344981 124.06315566 24.23084815 122.73715162 22.32780457 121.41027832 C17.38840648 117.96816698 12.43757332 114.54451907 7.46647644 111.14831543 C6.44424988 110.4464209 5.42202332 109.74452637 4.36882019 109.0213623 C2.43663674 107.69518185 0.50073417 106.37439482 -1.43977356 105.0604248 C-7.87268454 100.63312342 -13.63320612 95.73302954 -19.32649231 90.39440918 C-20.25461731 89.54491699 -21.18274231 88.6954248 -22.13899231 87.82019043 C-34.18706011 76.18089636 -45.2164599 61.84684975 -45.98200989 44.58703613 C-46.12976752 31.85844906 -43.72054208 21.27765891 -35.26789856 11.32800293 C-25.18354794 1.28423319 -13.70817824 -0.05549632 0 0 Z " fill="#FFFFFF" transform="translate(96.32649230957031,93.6055908203125)"/>
</svg>
