<?xml version="1.0" encoding="UTF-8"?>
<svg version="1.1" xmlns="http://www.w3.org/2000/svg" width="512" height="512">
<path d="M0 0 C0.68208527 0.00054382 1.36417053 0.00108765 2.06692505 0.00164795 C32.66490988 0.11347125 59.94079133 10.09423068 81.9375 31.8125 C86.99724376 36.93733988 91.34154089 42.22568166 95.125 48.375 C95.70636719 49.28507812 96.28773438 50.19515625 96.88671875 51.1328125 C101.63461251 58.8571516 105.04690944 66.88557239 108.125 75.375 C108.49496094 76.38820313 108.86492187 77.40140625 109.24609375 78.4453125 C112.70206405 88.74598662 114.60440851 99.6294275 116.125 110.375 C116.20931652 110.96892138 116.29363304 111.56284277 116.38050461 112.17476177 C117.47965637 121.28293032 117.25720796 130.43653709 117.23852539 139.59423828 C117.23824298 141.5365753 117.2384023 143.47891243 117.2389679 145.42124939 C117.23925378 150.67049925 117.23339081 155.91972606 117.22639394 161.16897058 C117.22012563 166.66357969 117.21955385 172.15818938 117.21836853 177.65280151 C117.21526545 188.04705996 117.20706589 198.44130783 117.19701904 208.83556163 C117.18373153 222.8887926 117.17834973 236.94202648 117.17251682 250.99526215 C117.16312529 273.12184934 117.14319953 295.24841424 117.125 317.375 C82.805 317.375 48.485 317.375 13.125 317.375 C13.08761719 304.41089844 13.05023438 291.44679688 13.01171875 278.08984375 C12.98143348 269.86392171 12.95040265 261.6380136 12.91601562 253.41210938 C12.86160498 240.36321291 12.81018868 227.31435511 12.77856445 214.26538086 C12.75551483 204.76030123 12.72203954 195.25532376 12.67629844 185.75032526 C12.65245983 180.72240462 12.63366992 175.69458458 12.62738609 170.66660881 C12.62129262 165.92318096 12.60114084 161.18001018 12.57072449 156.43667793 C12.56201203 154.70627256 12.55820739 152.97583349 12.55999184 151.2454071 C12.57398282 131.39765207 9.9084144 110.72867679 -3.875 95.375 C-14.01569139 85.40176957 -26.35991652 83.0713653 -40.02709961 83.06030273 C-54.51883953 83.2805261 -65.94303636 88.67122404 -76.5625 98.4375 C-88.18394124 110.64314296 -93.00965162 125.68972347 -93.03321838 142.28442383 C-93.03815636 143.03854931 -93.04309434 143.79267479 -93.04818195 144.56965256 C-93.06342946 147.07377675 -93.07188263 149.57787558 -93.08032227 152.08203125 C-93.08991084 153.88614623 -93.09992148 155.69025902 -93.11032104 157.49436951 C-93.1372701 162.37595736 -93.15833357 167.25755477 -93.17832303 172.13917542 C-93.20024452 177.24677254 -93.22760296 182.3543405 -93.25437927 187.46191406 C-93.30422303 197.12664913 -93.3491926 206.79140046 -93.39240164 216.45616722 C-93.45109528 229.52124857 -93.51733731 242.58629152 -93.58315182 255.65133858 C-93.68659634 276.22586648 -93.779972 296.80042751 -93.875 317.375 C-128.195 317.375 -162.515 317.375 -197.875 317.375 C-197.875 215.075 -197.875 112.775 -197.875 7.375 C-163.555 7.375 -129.235 7.375 -93.875 7.375 C-93.545 21.235 -93.215 35.095 -92.875 49.375 C-89.905 45.745 -86.935 42.115 -83.875 38.375 C-61.40625702 15.02166084 -32.69949673 -0.04403433 0 0 Z " fill="#FFFFFF" transform="translate(378.875,167.625)"/>
<path d="M0 0 C34.32 0 68.64 0 104 0 C104 102.3 104 204.6 104 310 C69.68 310 35.36 310 0 310 C0 207.7 0 105.4 0 0 Z " fill="#FFFFFF" transform="translate(21,175)"/>
<path d="M0 0 C10.90539468 9.13049476 16.69318369 21.20433798 18.75 35.1875 C19.99750828 50.58482827 16.41093512 65.36845442 6.5 77.5 C-4.0416961 88.61837532 -18.74210985 94.99227194 -33.9921875 95.48828125 C-36.03641112 95.50271415 -38.08073564 95.50646101 -40.125 95.5 C-41.64287109 95.52416992 -41.64287109 95.52416992 -43.19140625 95.54882812 C-53.12849746 95.5551899 -61.73648725 93.31203591 -70.5625 88.8125 C-72.25826172 87.96558594 -72.25826172 87.96558594 -73.98828125 87.1015625 C-86.60475239 79.69788483 -93.61498285 67.99731961 -97.25 54.1875 C-99.97691577 38.07072858 -97.56110053 22.85549286 -88.25 9.1875 C-67.37453939 -16.5998337 -26.00513645 -19.79495461 0 0 Z " fill="#FFFFFF" transform="translate(113.25,37.8125)"/>
</svg>
