<?xml version="1.0" encoding="UTF-8"?>
<svg version="1.1" xmlns="http://www.w3.org/2000/svg" width="512" height="512">
<path d="M0 0 C0.78181641 -0.06251953 1.56363281 -0.12503906 2.36914062 -0.18945312 C5.95188069 -0.28822541 8.26469406 -0.14880102 11.15917969 2.08227539 C15.28290536 6.58517509 18.13834974 11.67477129 20.8125 17.125 C21.66217039 18.79459815 22.51519936 20.46249018 23.37109375 22.12890625 C24.04567627 23.4439917 24.04567627 23.4439917 24.73388672 24.78564453 C27.34293026 29.76973275 30.10642019 34.66574924 32.875 39.5625 C33.65834717 40.95770874 33.65834717 40.95770874 34.45751953 42.38110352 C37.65813373 48.03170091 41.02536832 53.54443765 44.54858398 58.99975586 C53.96039686 73.71684208 53.96039686 73.71684208 53.1875 80.5625 C47.79571604 90.85590574 37.29721426 98.64082087 28.24707031 105.5793457 C22.56263577 109.96495123 17.19410196 114.55259706 13.1875 120.5625 C12.63751837 126.06231627 13.83268078 129.90821184 16.375 134.6875 C16.72377197 135.36200195 17.07254395 136.03650391 17.43188477 136.73144531 C24.81912896 150.69719173 33.291835 164.23856296 43.1875 176.5625 C43.94804687 177.52542969 44.70859375 178.48835937 45.4921875 179.48046875 C49.78282073 184.83292535 54.22748465 189.82793989 59.1875 194.5625 C64.1875 199.5625 64.1875 199.5625 65.55859375 201.0390625 C78.6398969 214.80542142 95.49774177 224.86387735 111.6875 234.5 C112.61949219 235.05606934 113.55148437 235.61213867 114.51171875 236.18505859 C124.19646231 242.31084966 124.19646231 242.31084966 135.1875 243.5625 C143.31031222 239.32451102 149.01972497 231.89520536 154.5 224.75 C167.79464923 207.46881344 167.79464923 207.46881344 177.1875 203.5625 C185.68626258 203.26943922 192.28475417 208.18310961 199.07641602 212.86450195 C205.27102574 217.11340102 211.75718227 220.75254346 218.34912109 224.3399353 C220.2821053 225.39248195 222.21176968 226.45089425 224.140625 227.51098633 C229.57510966 230.49665841 235.0163645 233.46961817 240.46484375 236.4296875 C241.87256712 237.2028132 243.28013791 237.97621684 244.6875 238.75 C245.29601807 239.07524658 245.90453613 239.40049316 246.53149414 239.7355957 C250.40284257 241.87489243 253.48101554 244.04307881 256.1875 247.5625 C256.70773382 250.53395315 256.90346423 252.79382196 256.8125 255.75 C256.79920654 256.5322998 256.78591309 257.31459961 256.7722168 258.12060547 C256.25624322 271.2067404 252.69681858 284.12327877 244 294.0625 C243.071875 294.8875 242.14375 295.7125 241.1875 296.5625 C240.53523438 297.14515625 239.88296875 297.7278125 239.2109375 298.328125 C217.05911785 317.14605875 191.64307479 322.82629432 163.1875 320.5625 C154.85210926 319.28290623 147.06901318 316.47681063 139.1875 313.5625 C137.90981195 313.105974 136.63145754 312.65130983 135.35253906 312.19824219 C98.91162559 299.2651345 68.30707437 282.20826193 39.1875 256.5625 C38.48616943 255.94874512 37.78483887 255.33499023 37.06225586 254.70263672 C30.27067185 248.68359108 23.80600556 242.36719878 17.3918457 235.95214844 C15.62925477 234.19174948 13.85878961 232.43953618 12.08789062 230.6875 C5.32126357 223.95435324 -0.90741459 217.07349451 -6.8125 209.5625 C-7.83619081 208.31859931 -8.86311014 207.07734215 -9.89453125 205.83984375 C-29.62467362 181.8357188 -42.57055599 156.02153822 -53.2618103 127.04489136 C-53.78571758 125.62508805 -54.311698 124.20604759 -54.83999634 122.78787231 C-60.39132205 107.83507557 -64.57061565 93.76804949 -64.375 77.625 C-64.36331787 76.31958252 -64.35163574 75.01416504 -64.33959961 73.66918945 C-63.8490667 52.16994755 -55.07334144 34.25923397 -41.8125 17.5625 C-41.15378906 16.70140625 -40.49507812 15.8403125 -39.81640625 14.953125 C-30.75960375 4.14851851 -13.51686275 0.47215686 0 0 Z " fill="#FFFFFF" transform="translate(159.8125,95.4375)"/>
</svg>
